<?xml version="1.0" encoding="UTF-8" standalone="no"?>
<!DOCTYPE svg PUBLIC "-//W3C//DTD SVG 1.1//EN"
 "http://www.w3.org/Graphics/SVG/1.1/DTD/svg11.dtd">
<!-- Generated by graphviz version 2.43.0 (0)
 -->
<!-- Title: stack Pages: 1 -->
<svg width="1823pt" height="509pt"
 viewBox="0.00 0.00 1822.60 509.45" xmlns="http://www.w3.org/2000/svg" xmlns:xlink="http://www.w3.org/1999/xlink">
<g id="graph0" class="graph" transform="scale(1 1) rotate(0) translate(28.8 480.65)">
<title>stack</title>
<polygon fill="white" stroke="transparent" points="-28.8,28.8 -28.8,-480.65 1793.8,-480.65 1793.8,28.8 -28.8,28.8"/>
<text text-anchor="start" x="730" y="-437.65" font-family="Helvetica,sans-Serif" font-weight="bold" font-size="14.00">Self&#45;Hosted Stack — Network Topology</text>
<text text-anchor="start" x="665.5" y="-426.85" font-family="Helvetica,sans-Serif" font-size="10.00" fill="#64748b">Two Docker networks. The autonomous AI agent is isolated — no route to any data store.</text>
<text text-anchor="start" x="880" y="-413.65" font-family="Helvetica,sans-Serif" font-size="14.00"> </text>
<g id="clust1" class="cluster">
<title>cluster_app</title>
<path fill="#f8fafc" stroke="#cbd5e1" d="M20,-8C20,-8 1213,-8 1213,-8 1219,-8 1225,-14 1225,-20 1225,-20 1225,-203.25 1225,-203.25 1225,-209.25 1219,-215.25 1213,-215.25 1213,-215.25 20,-215.25 20,-215.25 14,-215.25 8,-209.25 8,-203.25 8,-203.25 8,-20 8,-20 8,-14 14,-8 20,-8"/>
<text text-anchor="start" x="16" y="-202.65" font-family="Helvetica,sans-Serif" font-weight="bold" font-size="12.00" fill="#334155">openwebui_default</text>
<text text-anchor="start" x="143" y="-202.65" font-family="Helvetica,sans-Serif" font-size="12.00" fill="#334155"> &#160;&#160;· &#160;&#160;main app network</text>
</g>
<g id="clust2" class="cluster">
<title>cluster_hermes</title>
<path fill="#fff1f2" stroke="#f87171" stroke-dasharray="5,2" d="M1245,-15.12C1245,-15.12 1745,-15.12 1745,-15.12 1751,-15.12 1757,-21.12 1757,-27.12 1757,-27.12 1757,-77.12 1757,-77.12 1757,-83.12 1751,-89.12 1745,-89.12 1745,-89.12 1245,-89.12 1245,-89.12 1239,-89.12 1233,-83.12 1233,-77.12 1233,-77.12 1233,-27.12 1233,-27.12 1233,-21.12 1239,-15.12 1245,-15.12"/>
</g>
<!-- internet -->
<g id="node1" class="node">
<title>internet</title>
<ellipse fill="#e2e8f0" stroke="#94a3b8" stroke-width="1.3" cx="1140" cy="-386.05" rx="50.82" ry="19.6"/>
<text text-anchor="middle" x="1140" y="-383.25" font-family="Helvetica,sans-Serif" font-size="11.00">Internet</text>
</g>
<!-- caddy -->
<g id="node2" class="node">
<title>caddy</title>
<path fill="#dbeafe" stroke="#2563eb" stroke-width="1.3" d="M1218.5,-306.25C1218.5,-306.25 1061.5,-306.25 1061.5,-306.25 1055.5,-306.25 1049.5,-300.25 1049.5,-294.25 1049.5,-294.25 1049.5,-280.25 1049.5,-280.25 1049.5,-274.25 1055.5,-268.25 1061.5,-268.25 1061.5,-268.25 1218.5,-268.25 1218.5,-268.25 1224.5,-268.25 1230.5,-274.25 1230.5,-280.25 1230.5,-280.25 1230.5,-294.25 1230.5,-294.25 1230.5,-300.25 1224.5,-306.25 1218.5,-306.25"/>
<text text-anchor="start" x="1120.5" y="-290.45" font-family="Helvetica,sans-Serif" font-weight="bold" font-size="11.00">Caddy</text>
<text text-anchor="start" x="1063.5" y="-279.45" font-family="Helvetica,sans-Serif" font-size="11.00">reverse proxy · auto&#45;HTTPS</text>
</g>
<!-- internet&#45;&gt;caddy -->
<g id="edge1" class="edge">
<title>internet&#45;&gt;caddy</title>
<path fill="none" stroke="#64748b" stroke-width="1.5" d="M1140,-365.92C1140,-351.87 1140,-332.53 1140,-316.67"/>
<polygon fill="#64748b" stroke="#64748b" stroke-width="1.5" points="1143.5,-316.35 1140,-306.35 1136.5,-316.35 1143.5,-316.35"/>
<text text-anchor="middle" x="1178.5" y="-334.05" font-family="Helvetica,sans-Serif" font-size="9.00" fill="#334155">80 / 443 · HTTPS</text>
</g>
<!-- tinyauth -->
<g id="node3" class="node">
<title>tinyauth</title>
<path fill="#fef3c7" stroke="#d97706" stroke-width="1.3" d="M1194.5,-176.25C1194.5,-176.25 1085.5,-176.25 1085.5,-176.25 1079.5,-176.25 1073.5,-170.25 1073.5,-164.25 1073.5,-164.25 1073.5,-150.25 1073.5,-150.25 1073.5,-144.25 1079.5,-138.25 1085.5,-138.25 1085.5,-138.25 1194.5,-138.25 1194.5,-138.25 1200.5,-138.25 1206.5,-144.25 1206.5,-150.25 1206.5,-150.25 1206.5,-164.25 1206.5,-164.25 1206.5,-170.25 1200.5,-176.25 1194.5,-176.25"/>
<text text-anchor="start" x="1112.5" y="-160.45" font-family="Helvetica,sans-Serif" font-weight="bold" font-size="11.00">Tinyauth</text>
<text text-anchor="start" x="1087.5" y="-149.45" font-family="Helvetica,sans-Serif" font-size="11.00">SSO · forward&#45;auth</text>
</g>
<!-- caddy&#45;&gt;tinyauth -->
<g id="edge4" class="edge">
<title>caddy&#45;&gt;tinyauth</title>
<path fill="none" stroke="#64748b" stroke-width="1.5" d="M1140,-268.18C1140,-256.8 1140,-241.33 1140,-225.59"/>
<polygon fill="#64748b" stroke="#64748b" stroke-width="1.5" points="1143.5,-225.25 1140,-215.25 1136.5,-225.25 1143.5,-225.25"/>
<text text-anchor="middle" x="1167.5" y="-236.05" font-family="Helvetica,sans-Serif" font-size="9.00" fill="#334155">routes all</text>
<text text-anchor="middle" x="1167.5" y="-226.05" font-family="Helvetica,sans-Serif" font-size="9.00" fill="#334155">subdomains</text>
</g>
<!-- owui -->
<g id="node4" class="node">
<title>owui</title>
<path fill="#e0e7ff" stroke="#4f46e5" stroke-width="1.3" d="M913,-176.25C913,-176.25 833,-176.25 833,-176.25 827,-176.25 821,-170.25 821,-164.25 821,-164.25 821,-150.25 821,-150.25 821,-144.25 827,-138.25 833,-138.25 833,-138.25 913,-138.25 913,-138.25 919,-138.25 925,-144.25 925,-150.25 925,-150.25 925,-164.25 925,-164.25 925,-170.25 919,-176.25 913,-176.25"/>
<text text-anchor="start" x="835" y="-160.45" font-family="Helvetica,sans-Serif" font-weight="bold" font-size="11.00">Open WebUI</text>
<text text-anchor="start" x="853.5" y="-149.45" font-family="Helvetica,sans-Serif" font-size="11.00">AI chat</text>
</g>
<!-- hermes -->
<g id="node14" class="node">
<title>hermes</title>
<path fill="#ffedd5" stroke="#ea580c" stroke-width="1.3" d="M1385,-71.12C1385,-71.12 1263,-71.12 1263,-71.12 1257,-71.12 1251,-65.12 1251,-59.12 1251,-59.12 1251,-45.12 1251,-45.12 1251,-39.12 1257,-33.12 1263,-33.12 1263,-33.12 1385,-33.12 1385,-33.12 1391,-33.12 1397,-39.12 1397,-45.12 1397,-45.12 1397,-59.12 1397,-59.12 1397,-65.12 1391,-71.12 1385,-71.12"/>
<text text-anchor="start" x="1300" y="-55.33" font-family="Helvetica,sans-Serif" font-weight="bold" font-size="11.00">Hermes</text>
<text text-anchor="start" x="1265" y="-44.33" font-family="Helvetica,sans-Serif" font-size="11.00">autonomous AI agent</text>
</g>
<!-- owui&#45;&gt;hermes -->
<g id="edge5" class="edge">
<title>owui&#45;&gt;hermes</title>
<path fill="none" stroke="#16a34a" stroke-width="1.9" d="M935.16,-139.16C936.45,-138.85 937.73,-138.55 939,-138.25 1017.93,-119.8 1037.96,-116.06 1118,-103.25 1167.98,-95.25 1181.92,-101.49 1231,-89.12 1245.32,-85.52 1260.43,-80.31 1274.2,-74.98"/>
<polygon fill="#16a34a" stroke="#16a34a" stroke-width="1.9" points="934.01,-135.84 925.15,-141.65 935.7,-142.63 934.01,-135.84"/>
<polygon fill="#16a34a" stroke="#16a34a" stroke-width="1.9" points="1275.5,-78.23 1283.5,-71.29 1272.92,-71.73 1275.5,-78.23"/>
<text text-anchor="middle" x="1133" y="-106.05" font-family="Helvetica,sans-Serif" font-size="9.00" fill="#15803d">bridge</text>
</g>
<!-- searxng -->
<g id="node5" class="node">
<title>searxng</title>
<path fill="#e0e7ff" stroke="#4f46e5" stroke-width="1.3" d="M1034,-176.25C1034,-176.25 964,-176.25 964,-176.25 958,-176.25 952,-170.25 952,-164.25 952,-164.25 952,-150.25 952,-150.25 952,-144.25 958,-138.25 964,-138.25 964,-138.25 1034,-138.25 1034,-138.25 1040,-138.25 1046,-144.25 1046,-150.25 1046,-150.25 1046,-164.25 1046,-164.25 1046,-170.25 1040,-176.25 1034,-176.25"/>
<text text-anchor="start" x="971.5" y="-160.45" font-family="Helvetica,sans-Serif" font-weight="bold" font-size="11.00">SearXNG</text>
<text text-anchor="start" x="966" y="-149.45" font-family="Helvetica,sans-Serif" font-size="11.00">metasearch</text>
</g>
<!-- searxng&#45;&gt;hermes -->
<g id="edge6" class="edge">
<title>searxng&#45;&gt;hermes</title>
<path fill="none" stroke="#16a34a" stroke-width="1.9" d="M1056.2,-139.36C1057.48,-138.98 1058.75,-138.61 1060,-138.25 1135.92,-116.14 1156.05,-114.34 1231,-89.12 1243.81,-84.81 1257.47,-79.78 1270.25,-74.87"/>
<polygon fill="#16a34a" stroke="#16a34a" stroke-width="1.9" points="1054.89,-136.09 1046.28,-142.26 1056.86,-142.81 1054.89,-136.09"/>
<polygon fill="#16a34a" stroke="#16a34a" stroke-width="1.9" points="1271.77,-78.04 1279.83,-71.15 1269.24,-71.51 1271.77,-78.04"/>
<text text-anchor="middle" x="1199" y="-106.05" font-family="Helvetica,sans-Serif" font-size="9.00" fill="#15803d">bridge</text>
</g>
<!-- actual -->
<g id="node6" class="node">
<title>actual</title>
<path fill="#ffffff" stroke="#475569" stroke-width="1.3" d="M782,-175.25C782,-175.25 700,-175.25 700,-175.25 694,-175.25 688,-169.25 688,-163.25 688,-163.25 688,-151.25 688,-151.25 688,-145.25 694,-139.25 700,-139.25 700,-139.25 782,-139.25 782,-139.25 788,-139.25 794,-145.25 794,-151.25 794,-151.25 794,-163.25 794,-163.25 794,-169.25 788,-175.25 782,-175.25"/>
<text text-anchor="middle" x="741" y="-154.45" font-family="Helvetica,sans-Serif" font-size="11.00">Actual Budget</text>
</g>
<!-- freshrss -->
<g id="node7" class="node">
<title>freshrss</title>
<path fill="#ffffff" stroke="#475569" stroke-width="1.3" d="M648.5,-175.25C648.5,-175.25 593.5,-175.25 593.5,-175.25 587.5,-175.25 581.5,-169.25 581.5,-163.25 581.5,-163.25 581.5,-151.25 581.5,-151.25 581.5,-145.25 587.5,-139.25 593.5,-139.25 593.5,-139.25 648.5,-139.25 648.5,-139.25 654.5,-139.25 660.5,-145.25 660.5,-151.25 660.5,-151.25 660.5,-163.25 660.5,-163.25 660.5,-169.25 654.5,-175.25 648.5,-175.25"/>
<text text-anchor="middle" x="621" y="-154.45" font-family="Helvetica,sans-Serif" font-size="11.00">FreshRSS</text>
</g>
<!-- memos -->
<g id="node8" class="node">
<title>memos</title>
<path fill="#ffffff" stroke="#475569" stroke-width="1.3" d="M542,-175.25C542,-175.25 498,-175.25 498,-175.25 492,-175.25 486,-169.25 486,-163.25 486,-163.25 486,-151.25 486,-151.25 486,-145.25 492,-139.25 498,-139.25 498,-139.25 542,-139.25 542,-139.25 548,-139.25 554,-145.25 554,-151.25 554,-151.25 554,-163.25 554,-163.25 554,-169.25 548,-175.25 542,-175.25"/>
<text text-anchor="middle" x="520" y="-154.45" font-family="Helvetica,sans-Serif" font-size="11.00">Memos</text>
</g>
<!-- linkwarden -->
<g id="node9" class="node">
<title>linkwarden</title>
<path fill="#ffffff" stroke="#475569" stroke-width="1.3" d="M446.5,-175.25C446.5,-175.25 379.5,-175.25 379.5,-175.25 373.5,-175.25 367.5,-169.25 367.5,-163.25 367.5,-163.25 367.5,-151.25 367.5,-151.25 367.5,-145.25 373.5,-139.25 379.5,-139.25 379.5,-139.25 446.5,-139.25 446.5,-139.25 452.5,-139.25 458.5,-145.25 458.5,-151.25 458.5,-151.25 458.5,-163.25 458.5,-163.25 458.5,-169.25 452.5,-175.25 446.5,-175.25"/>
<text text-anchor="middle" x="413" y="-154.45" font-family="Helvetica,sans-Serif" font-size="11.00">Linkwarden</text>
</g>
<!-- postgres -->
<g id="node13" class="node">
<title>postgres</title>
<path fill="#fee2e2" stroke="#dc2626" stroke-width="1.3" d="M463.5,-73.6C463.5,-76.24 440.87,-78.38 413,-78.38 385.13,-78.38 362.5,-76.24 362.5,-73.6 362.5,-73.6 362.5,-30.65 362.5,-30.65 362.5,-28.01 385.13,-25.87 413,-25.87 440.87,-25.87 463.5,-28.01 463.5,-30.65 463.5,-30.65 463.5,-73.6 463.5,-73.6"/>
<path fill="none" stroke="#dc2626" stroke-width="1.3" d="M463.5,-73.6C463.5,-70.97 440.87,-68.83 413,-68.83 385.13,-68.83 362.5,-70.97 362.5,-73.6"/>
<text text-anchor="start" x="376.5" y="-55.33" font-family="Helvetica,sans-Serif" font-weight="bold" font-size="11.00">PostgreSQL</text>
<text text-anchor="start" x="384" y="-44.33" font-family="Helvetica,sans-Serif" font-size="11.00">data store</text>
</g>
<!-- linkwarden&#45;&gt;postgres -->
<g id="edge2" class="edge">
<title>linkwarden&#45;&gt;postgres</title>
<path fill="none" stroke="#64748b" d="M413,-139.22C413,-125.48 413,-105.69 413,-88.55"/>
<polygon fill="#64748b" stroke="#64748b" points="416.5,-88.29 413,-78.29 409.5,-88.29 416.5,-88.29"/>
<text text-anchor="middle" x="418.5" y="-106.35" font-family="Helvetica,sans-Serif" font-size="8.00">db</text>
</g>
<!-- ittools -->
<g id="node10" class="node">
<title>ittools</title>
<path fill="#ffffff" stroke="#475569" stroke-width="1.3" d="M328,-175.25C328,-175.25 284,-175.25 284,-175.25 278,-175.25 272,-169.25 272,-163.25 272,-163.25 272,-151.25 272,-151.25 272,-145.25 278,-139.25 284,-139.25 284,-139.25 328,-139.25 328,-139.25 334,-139.25 340,-145.25 340,-151.25 340,-151.25 340,-163.25 340,-163.25 340,-169.25 334,-175.25 328,-175.25"/>
<text text-anchor="middle" x="306" y="-154.45" font-family="Helvetica,sans-Serif" font-size="11.00">IT&#45;Tools</text>
</g>
<!-- homepage -->
<g id="node11" class="node">
<title>homepage</title>
<path fill="#ffffff" stroke="#475569" stroke-width="1.3" d="M233,-175.25C233,-175.25 169,-175.25 169,-175.25 163,-175.25 157,-169.25 157,-163.25 157,-163.25 157,-151.25 157,-151.25 157,-145.25 163,-139.25 169,-139.25 169,-139.25 233,-139.25 233,-139.25 239,-139.25 245,-145.25 245,-151.25 245,-151.25 245,-163.25 245,-163.25 245,-169.25 239,-175.25 233,-175.25"/>
<text text-anchor="middle" x="201" y="-154.45" font-family="Helvetica,sans-Serif" font-size="11.00">Homepage</text>
</g>
<!-- kuma -->
<g id="node12" class="node">
<title>kuma</title>
<path fill="#ffffff" stroke="#475569" stroke-width="1.3" d="M117.5,-175.25C117.5,-175.25 38.5,-175.25 38.5,-175.25 32.5,-175.25 26.5,-169.25 26.5,-163.25 26.5,-163.25 26.5,-151.25 26.5,-151.25 26.5,-145.25 32.5,-139.25 38.5,-139.25 38.5,-139.25 117.5,-139.25 117.5,-139.25 123.5,-139.25 129.5,-145.25 129.5,-151.25 129.5,-151.25 129.5,-163.25 129.5,-163.25 129.5,-169.25 123.5,-175.25 117.5,-175.25"/>
<text text-anchor="middle" x="78" y="-154.45" font-family="Helvetica,sans-Serif" font-size="11.00">Uptime Kuma</text>
</g>
<!-- hermes&#45;&gt;postgres -->
<g id="edge7" class="edge">
<title>hermes:w&#45;&gt;postgres:e</title>
<path fill="none" stroke="#dc2626" stroke-width="1.7" stroke-dasharray="5,2" d="M1251,-52.12C1091.12,-52.13 1053.13,-21.03 893.5,-12.12 705.32,-1.63 657.16,-50.31 473.76,-52.08"/>
<polygon fill="#dc2626" stroke="#dc2626" stroke-width="1.7" points="473.48,-48.58 463.5,-52.12 473.52,-55.58 473.48,-48.58"/>
<text text-anchor="middle" x="858" y="-24.93" font-family="Helvetica,sans-Serif" font-size="9.00" fill="#b91c1c">✗ &#160;no route</text>
<text text-anchor="middle" x="858" y="-14.93" font-family="Helvetica,sans-Serif" font-size="9.00" fill="#b91c1c">(default&#45;closed)</text>
</g>
<!-- hermes_label -->
<g id="node15" class="node">
<title>hermes_label</title>
<path fill="#ffffff" stroke="transparent" stroke-width="1.3" d="M1727,-70.12C1727,-70.12 1463,-70.12 1463,-70.12 1457,-70.12 1451,-64.12 1451,-58.12 1451,-58.12 1451,-46.12 1451,-46.12 1451,-40.12 1457,-34.12 1463,-34.12 1463,-34.12 1727,-34.12 1727,-34.12 1733,-34.12 1739,-40.12 1739,-46.12 1739,-46.12 1739,-58.12 1739,-58.12 1739,-64.12 1733,-70.12 1727,-70.12"/>
<text text-anchor="start" x="1465" y="-50.02" font-family="Helvetica,sans-Serif" font-weight="bold" font-size="12.00" fill="#b91c1c">hermes&#45;net</text>
<text text-anchor="start" x="1544" y="-50.02" font-family="Helvetica,sans-Serif" font-size="12.00"> &#160;&#160;· &#160;&#160;</text>
<text text-anchor="start" x="1571" y="-50.02" font-family="Helvetica,sans-Serif" font-size="12.00" fill="#b91c1c">isolated AI&#45;agent network</text>
</g>
<!-- hermes&#45;&gt;hermes_label -->
</g>
</svg>
